inDegrees=no
num_controls=7
num_derivatives=13
num_iterations=67
num_multipliers=7
num_parameters=0
num_slacks=7
num_states=26
objective=0.333976
objective_accelerations=0.036927
objective_balance=0.001319
objective_effort=0.027165
objective_height=0.267088
objective_ligament=0.001477
solver_duration=730.125574
status=Solve_Succeeded
success=true
DataType=double
version=3
OpenSimVersion=4.5
endheader
time	/jointset/ground_pelvis/pelvis_tilt/value	/jointset/ground_pelvis/pelvis_tx/value	/jointset/ground_pelvis/pelvis_ty/value	/jointset/hip_r/hip_flexion_r/value	/jointset/hip_r/hip_adduction_r/value	/jointset/hip_r/hip_rotation_r/value	/jointset/back/lumbar_extension/value	/jointset/patellofemoral_r/patellar_flexion_r/value	/jointset/knee_r/knee_flexion_r/value	/jointset/knee_r/knee_adduction_r/value	/jointset/knee_r/knee_rotation_r/value	/jointset/ankle_r/ankle_angle_r/value	/jointset/subtalar_r/subtalar_angle_r/value	/jointset/ground_pelvis/pelvis_tilt/speed	/jointset/ground_pelvis/pelvis_tx/speed	/jointset/ground_pelvis/pelvis_ty/speed	/jointset/hip_r/hip_flexion_r/speed	/jointset/hip_r/hip_adduction_r/speed	/jointset/hip_r/hip_rotation_r/speed	/jointset/back/lumbar_extension/speed	/jointset/patellofemoral_r/patellar_flexion_r/speed	/jointset/knee_r/knee_flexion_r/speed	/jointset/knee_r/knee_adduction_r/speed	/jointset/knee_r/knee_rotation_r/speed	/jointset/ankle_r/ankle_angle_r/speed	/jointset/subtalar_r/subtalar_angle_r/speed	/forceset/tau_hip_flexion_r	/forceset/tau_hip_adduction_r	/forceset/tau_hip_rotation_r	/forceset/tau_knee_flexion_r	/forceset/tau_ankle_angle_r	/forceset/tau_subtalar_angle_r	/forceset/tau_lumbar_extension	lambda_cid13_p0	lambda_cid14_p0	lambda_cid14_p1	lambda_cid14_p2	lambda_cid14_p3	lambda_cid14_p4	lambda_cid14_p5	/jointset/ground_pelvis/pelvis_tilt/accel	/jointset/ground_pelvis/pelvis_tx/accel	/jointset/ground_pelvis/pelvis_ty/accel	/jointset/hip_r/hip_flexion_r/accel	/jointset/hip_r/hip_adduction_r/accel	/jointset/hip_r/hip_rotation_r/accel	/jointset/back/lumbar_extension/accel	/jointset/patellofemoral_r/patellar_flexion_r/accel	/jointset/knee_r/knee_flexion_r/accel	/jointset/knee_r/knee_adduction_r/accel	/jointset/knee_r/knee_rotation_r/accel	/jointset/ankle_r/ankle_angle_r/accel	/jointset/subtalar_r/subtalar_angle_r/accel	gamma_cid13_p0	gamma_cid14_p0	gamma_cid14_p1	gamma_cid14_p2	gamma_cid14_p3	gamma_cid14_p4	gamma_cid14_p5
0	-0.01114694147488665	0.133884365270404	0.9325532634448124	0.1934211968871041	-0.2373334540217597	-0.2324721796461681	-0.2903787966825928	0.2311786273363416	0.2311786273363406	0.1531296602646218	0.16992241805397	0.089344008118978	0.0524015487224904	0	0	0	0	0	0	0	0	0	0	0	0	0	0.1034732061705278	-0.03661206525047159	0.007176809632419748	-0.2395283814197885	0.1152508573864101	-0.1287606745526561	-0.02575445130446112	-29.89427603971022	-11.29640766065871	-52.8474044497644	3.077483560630621	5.397782933335129	-611.9339006920655	16.06162213046312	-2.086028285230053	-1.937591109165251	-0.8228271006085531	10.31375042174527	0.350488708335232	2.189467936851141	-6.22644716258054	10.04513104283016	10.04513104282906	-3.288227245869119	0.3566066751602368	2.661794547248887	1.150055884453521	6.779066455406191e-08	5.368773788885438e-08	-4.23603795726602e-07	3.411561645640116e-07	6.62610916138962e-09	2.244901959468174e-07	-3.874526243006138e-07
0.01	-0.01124567381820693	0.1337901190735714	0.9325132276647069	0.1939235931571538	-0.2373138386741681	-0.2323614585560994	-0.2906918658558078	0.2316725760812734	0.2316725760812751	0.1529630940486063	0.1699354579648112	0.08947754038518735	0.05246174295295684	-0.0197131305198544	-0.01860650075798234	-0.007994576690318845	0.09991610870390399	0.00385058952573262	0.02206995845926876	-0.06223085464901155	0.09840683857329498	0.09840683857329661	-0.03305339743647025	0.002597162441736724	0.02679779004147017	0.01197822207165302	0.1055485735054524	-0.05808232539430733	0.006610607043111696	-0.2490778206140855	0.1275303194851491	-0.1153913383221414	-0.02597846022401524	-29.89901917759144	-6.654639425172103	-46.16248347132349	1.936474428695935	-0.1769914371550776	-613.1808670483338	30.95183865198824	-1.908955850654323	-1.785767442695009	-0.7858411555868083	9.746071601081894	0.3914645682575841	2.204689342412194	-6.163957616950149	9.681010144424238	9.681010144425167	-3.274955244293518	0.2097152886281479	2.702481801171806	1.212585038720889	8.744262448051366e-08	4.496152132222471e-08	-5.428590395488944e-07	4.453408388760162e-07	3.001328582238141e-08	1.22470961389917e-07	-5.289275811935436e-07
0.02	-0.01154053754978432	0.1335170902924428	0.9323936324772298	0.1954082566155149	-0.237257893332606	-0.2320322519730473	-0.2916157541756903	0.2331391031879123	0.233139103187912	0.1524737820078707	0.1699741583520473	0.08988179266552744	0.05263989533817973	-0.03922627765135514	-0.03575651685919302	-0.01591188147433831	0.1964534376625647	0.007265998794079794	0.04369709859643746	-0.1221638293335677	0.1945156723403932	0.1945156723404021	-0.06454916494324157	0.005132095281383423	0.05414400282596929	0.0235916309512933	0.1076239408403688	-0.0795525855381508	0.006044404453757652	-0.2586272598083804	0.139809781583886	-0.1020220020916359	-0.02620246914357339	-29.91287357814063	-1.933337297669329	-39.4881678318569	0.8251786461205842	-5.66440150058199	-613.1012319168793	45.49240323227671	-2.046031607559295	-1.646294177810948	-0.8073727193486756	9.637994472696633	0.2634526568581416	2.100904272431128	-5.766871169689449	9.585530081590822	9.58553008159083	-2.976701259929337	0.3441607547422345	2.771479095854646	1.077093246050964	1.070945844069654e-07	3.623530475559504e-08	-6.621142833711868e-07	5.495255131880207e-07	5.34004624833732e-08	2.045172683301655e-08	-6.704025380864733e-07
0.03	-0.01202945154484577	0.1330781176473387	0.9321950682097665	0.1978429863456594	-0.2371696187544177	-0.2314910864184946	-0.2931266308331659	0.235554379678014	0.2355543796780112	0.1516767398566201	0.1700392339851527	0.09055956924457524	0.05293210942575224	-0.05847504483800746	-0.05196710369455834	-0.02379916070196826	0.2900447410603011	0.01037402203757006	0.06442305708880738	-0.1795870640519785	0.2880487622242455	0.2880487622242622	-0.09468327092511322	0.007823262675487505	0.08124299610569159	0.03479287440630614	0.1014698482277578	-0.08156039923463203	0.006827295537935107	-0.251823102528881	0.1295242360186569	-0.09552021099980426	-0.02119163345573525	-29.93534833534978	-4.910189999142453	-37.03278111395475	0.259092111047584	-4.276069780806951	-613.5422165992856	49.42908953530173	-1.852072121104354	-1.59779389183556	-0.7791301488676841	9.152538274443595	0.3322508554043659	2.041605458830061	-5.666383906468294	9.163547425166625	9.163547425167906	-3.005414516832954	0.2227354413868412	2.653872248018366	1.132854298858778	1.185934450249659e-07	3.416430668508637e-08	-7.01496821485312e-07	6.432555558396661e-07	6.200264581036051e-08	-3.99020761824587e-08	-7.599297193494098e-07
0.04	-0.01270840778115091	0.1324791685427937	0.9319176862251476	0.2012001971100089	-0.2370507092043331	-0.2307460285147808	-0.2951990066945353	0.2388902568636281	0.2388902568636289	0.1505836267956418	0.1701294494341363	0.0915032883172178	0.05333457882860133	-0.0772347259001062	-0.06775180874739094	-0.03167542490546912	0.3809496445032939	0.01339299317345586	0.08447556842878363	-0.2344636701124425	0.3786358114434663	0.3786358114434957	-0.1237633468876602	0.0101600584552839	0.1073325015449078	0.04564269400661207	0.09531575561516305	-0.08356821293111391	0.00761018662214702	-0.2450189452493743	0.1192386904534315	-0.08901841990797288	-0.01618079776788665	-29.9652642090594	-7.813479044839375	-34.58420453572158	-0.2834168586731026	-2.818445122270998	-612.7761021889695	53.04740333802255	-1.948214382648556	-1.561117821304435	-0.8051697145228551	9.100714481747922	0.2456422353372478	1.966214841952391	-5.257545438100102	8.996321948664532	8.996321948665519	-2.765895256064416	0.2732864318806995	2.569581527753396	1.006808475109573	1.29924200502586e-07	3.223052961449773e-08	-7.392324996879285e-07	7.367700390756339e-07	7.029998391396629e-08	-9.939679813522415e-08	-8.483858124550269e-07
0.05	-0.01357299071841433	0.1317246798485113	0.9315612868755803	0.205453746272021	-0.2369023626922643	-0.2298049301226769	-0.2978073993412002	0.2431182450025768	0.2431182450025727	0.1492053798406745	0.1702425138597518	0.09270335305906642	0.05384360207689015	-0.09559859879868868	-0.08305549067446222	-0.03962472395649503	0.4693150882405314	0.01624760044408174	0.1036039499189072	-0.2868412964613068	0.4665276623532197	0.4665276623532614	-0.1516896998445773	0.01241949649728457	0.132557728552942	0.05610275354303772	0.08995168078390921	-0.07626154805237031	0.008057839883492736	-0.2407685452554496	0.114876378731967	-0.09039699051803542	-0.01178757001101933	-30.00139620765048	-9.219685997049647	-35.49427166947117	-0.06392478586061265	-2.42988914908288	-612.046618725816	49.5694350935758	-1.767974301127866	-1.501413336255682	-0.7928722027905286	8.637701651462454	0.3010986787909552	1.865264185742747	-5.171836819378938	8.620467486818425	8.620467486819644	-2.776593688305792	0.1974118492935499	2.480593841863806	1.056696545976434	1.172377953629013e-07	2.106389522909613e-08	-6.360954163483406e-07	6.674091362161088e-07	6.805170830047929e-08	-1.819588458480252e-07	-7.528150166852708e-07
0.06	-0.01461871249619643	0.1308198703433888	0.9311247820950234	0.210577598337757	-0.2367263243663162	-0.2286767250390324	-0.300928361368573	0.2482121218155584	0.2482121218155554	0.1475537516815764	0.1703772005375799	0.09415199018190243	0.0544554442911567	-0.1134624940038633	-0.09781597091543931	-0.04769651110340742	0.5550102252477985	0.01893135594933431	0.1218969067370482	-0.3369775462541421	0.5518135462504807	0.55181354625053	-0.1784395877135128	0.01448450889663583	0.1570469777423912	0.06620648720215808	0.08458760595267321	-0.068954883173626	0.008505493144863844	-0.2365181452615151	0.1105140670105075	-0.09177556112809622	-0.007394342254141459	-30.04215975565947	-10.56164893195134	-36.41565288297082	0.1831430373483957	-1.977573168837289	-610.240519937534	45.79276477816003	-1.848218843966967	-1.452477484085627	-0.8296673337001469	8.566653135753848	0.2114718822625871	1.79912990755587	-4.809270126894297	8.475128546166028	8.47512854616609	-2.530602238468122	0.2344013033508202	2.422385964036331	0.9355432996485041	1.035401413551196e-07	9.508508956755052e-09	-5.27026848312239e-07	5.911903223630891e-07	6.53594068462726e-08	-2.654921493823015e-07	-6.494957203312885e-07
0.07000000000000001	-0.01584109889597978	0.1297703671724781	0.930606722777103	0.2165452861108227	-0.2365248735786983	-0.227369908597516	-0.3045389643054853	0.254145860630281	0.2541458606302754	0.145641788457821	0.1705318666008613	0.09584182877913168	0.05516586231267361	-0.130938119616479	-0.1119740095628068	-0.0559484931963087	0.6380683682109302	0.02134338558177357	0.1393292420293533	-0.3847689945781132	0.6344956383733694	0.6344956383733983	-0.203777863270612	0.01638717812157681	0.1808221692908369	0.0758433950282409	0.07950838123207121	-0.07145969386769127	0.0089281323400753	-0.2340212086897056	0.106402049348065	-0.0852814664911756	-0.003165329648624593	-30.085962019225	-11.42585830244833	-33.71599635729511	-0.2821948259237426	-2.293157166675226	-608.8184570149158	49.75193574916789	-1.685722081945559	-1.38085596031145	-0.8279888653844918	8.106557750276322	0.2537965636863663	1.694821284945073	-4.707975202584031	8.098942255253021	8.098942255249865	-2.509181796628507	0.1590792628782675	2.340303966653957	0.9726950131694104	7.48905463367821e-08	-7.585329129172591e-09	-2.960242063027455e-07	5.504793537002595e-07	5.30446093363038e-08	-3.123997733388647e-07	-5.360271449838825e-07
